<svg id="Layer_1" data-name="Layer 1" xmlns="http://www.w3.org/2000/svg" viewBox="0 0 1200 1200"><defs><style>.cls-1{fill:#37474f;}.cls-2{fill:#374850;}.cls-3{fill:#374950;}.cls-4{fill:#374951;}.cls-5{fill:#364a51;}.cls-6{fill:#364b51;}.cls-7{fill:#364b52;}.cls-8{fill:#364c52;}.cls-9{fill:#364d53;}.cls-10{fill:#364e53;}.cls-11{fill:#354f54;}.cls-12{fill:#355055;}.cls-13{fill:#355155;}.cls-14{fill:#345256;}.cls-15{fill:#345356;}.cls-16{fill:#345457;}.cls-17{fill:#335558;}.cls-18{fill:#335658;}.cls-19{fill:#325759;}.cls-20{fill:#325859;}.cls-21{fill:#32585a;}.cls-22{fill:#32595a;}.cls-23{fill:#315a5a;}.cls-24{fill:#315a5b;}.cls-25{fill:#315b5b;}.cls-26{fill:#305c5c;}.cls-27{fill:#305d5c;}.cls-28{fill:#2f5e5d;}.cls-29{fill:#2f5f5d;}.cls-30{fill:#2e5f5d;}.cls-31{fill:#2e605e;}.cls-32{fill:#2d615e;}.cls-33{fill:#2d615f;}.cls-34{fill:#2d625f;}.cls-35{fill:#2c635f;}.cls-36{fill:#2b6360;}.cls-37{fill:#2b6460;}.cls-38{fill:#2a6561;}.cls-39{fill:#296661;}.cls-40{fill:#296762;}.cls-41{fill:#286762;}.cls-42{fill:#276862;}.cls-43{fill:#276963;}.cls-44{fill:#266963;}.cls-45{fill:#256a64;}.cls-46{fill:#246b64;}.cls-47{fill:#236b64;}.cls-48{fill:#226c65;}.cls-49{fill:#216d65;}.cls-50{fill:#206e65;}.cls-51{fill:#1f6e66;}.cls-52{fill:#1e6f66;}.cls-53{fill:#1d7066;}.cls-54{fill:#1c7067;}.cls-55{fill:#1b7167;}.cls-56{fill:#197268;}.cls-57{fill:#187268;}.cls-58{fill:#167368;}.cls-59{fill:#147469;}.cls-60{fill:#137569;}.cls-61{fill:#117569;}.cls-62{fill:#0e766a;}.cls-63{fill:#0c776a;}.cls-64{fill:#09776a;}.cls-65{fill:#06786b;}.cls-66{fill:#02796b;}.cls-67{fill:#007a6c;}.cls-68{fill:#00796b;}.cls-69{fill:#00786a;}.cls-70{fill:#00776a;}.cls-71{fill:#007769;}.cls-72{fill:#007668;}.cls-73{fill:#007568;}.cls-74{fill:#007567;}.cls-75{fill:#007466;}.cls-76{fill:#007366;}.cls-77{fill:#007365;}.cls-78{fill:#007265;}.cls-79{fill:#007164;}.cls-80{fill:#007163;}.cls-81{fill:#007063;}.cls-82{fill:#006f62;}.cls-83{fill:#006f61;}.cls-84{fill:#006e61;}.cls-85{fill:#006e60;}.cls-86{fill:#006d60;}.cls-87{fill:#006c5f;}.cls-88{fill:#006c5e;}.cls-89{fill:#006b5e;}.cls-90{fill:#006a5d;}.cls-91{fill:#04695c;}.cls-92{fill:#07685c;}.cls-93{fill:#0a685c;}.cls-94{fill:#0d675c;}.cls-95{fill:#0f675c;}.cls-96{fill:#11665b;}.cls-97{fill:#13665b;}.cls-98{fill:#15655b;}.cls-99{fill:#16645b;}.cls-100{fill:#18645b;}.cls-101{fill:#19635a;}.cls-102{fill:#1b635a;}.cls-103{fill:#1c625a;}.cls-104{fill:#1d615a;}.cls-105{fill:#1e615a;}.cls-106{fill:#1f6059;}.cls-107{fill:#206059;}.cls-108{fill:#215f59;}.cls-109{fill:#225f59;}.cls-110{fill:#235e59;}.cls-111{fill:#245d58;}.cls-112{fill:#255d58;}.cls-113{fill:#265c58;}.cls-114{fill:#275c58;}.cls-115{fill:#275b58;}.cls-116{fill:#285b57;}.cls-117{fill:#295a57;}.cls-118{fill:#295957;}.cls-119{fill:#2a5957;}.cls-120{fill:#2a5856;}.cls-121{fill:#2b5856;}.cls-122{fill:#2c5756;}.cls-123{fill:#2d5656;}.cls-124{fill:#2d5555;}.cls-125{fill:#2e5555;}.cls-126{fill:#2e5455;}.cls-127{fill:#2f5455;}.cls-128{fill:#2f5354;}.cls-129{fill:#305354;}.cls-130{fill:#305254;}.cls-131{fill:#315254;}.cls-132{fill:#315154;}.cls-133{fill:#325053;}.cls-134{fill:#324f53;}.cls-135{fill:#334f53;}.cls-136{fill:#334e52;}.cls-137{fill:#344d52;}.cls-138{fill:#344c52;}.cls-139{fill:#344c51;}.cls-140{fill:#354b51;}.cls-141{fill:#354a51;}.cls-142{fill:#364a50;}.cls-143{fill:#364950;}</style></defs><circle class="cls-1" cx="603.39" cy="173.91" r="173.91"/><circle class="cls-2" cx="597.59" cy="179.67" r="173.91"/><circle class="cls-3" cx="591.78" cy="185.42" r="173.91"/><circle class="cls-4" cx="585.98" cy="191.18" r="173.91"/><circle class="cls-5" cx="580.18" cy="196.94" r="173.91"/><circle class="cls-6" cx="574.37" cy="202.69" r="173.91"/><circle class="cls-7" cx="568.57" cy="208.45" r="173.91"/><circle class="cls-8" cx="562.76" cy="214.2" r="173.91"/><circle class="cls-9" cx="556.96" cy="219.96" r="173.91"/><circle class="cls-9" cx="551.16" cy="225.72" r="173.91"/><circle class="cls-10" cx="545.35" cy="231.47" r="173.91"/><circle class="cls-11" cx="539.55" cy="237.23" r="173.91"/><circle class="cls-11" cx="533.75" cy="242.98" r="173.91"/><circle class="cls-12" cx="527.94" cy="248.74" r="173.91"/><circle class="cls-13" cx="522.14" cy="254.5" r="173.91"/><circle class="cls-13" cx="516.33" cy="260.25" r="173.91"/><circle class="cls-14" cx="510.53" cy="266.01" r="173.91"/><circle class="cls-15" cx="504.73" cy="271.76" r="173.91"/><circle class="cls-15" cx="498.92" cy="277.52" r="173.91"/><circle class="cls-16" cx="493.12" cy="283.28" r="173.91"/><circle class="cls-16" cx="487.32" cy="289.03" r="173.91"/><circle class="cls-17" cx="481.51" cy="294.79" r="173.91"/><circle class="cls-18" cx="475.71" cy="300.54" r="173.91"/><circle class="cls-18" cx="469.9" cy="306.3" r="173.91"/><circle class="cls-19" cx="464.1" cy="312.06" r="173.91"/><circle class="cls-20" cx="458.3" cy="317.81" r="173.91"/><circle class="cls-21" cx="452.49" cy="323.57" r="173.91"/><circle class="cls-22" cx="446.69" cy="329.32" r="173.91"/><circle class="cls-23" cx="440.89" cy="335.08" r="173.91"/><circle class="cls-24" cx="435.08" cy="340.84" r="173.91"/><circle class="cls-25" cx="429.28" cy="346.59" r="173.91"/><circle class="cls-26" cx="423.47" cy="352.35" r="173.91"/><circle class="cls-26" cx="417.67" cy="358.1" r="173.91"/><circle class="cls-27" cx="411.87" cy="363.86" r="173.91"/><circle class="cls-28" cx="406.06" cy="369.62" r="173.91"/><circle class="cls-29" cx="400.26" cy="375.37" r="173.91"/><circle class="cls-30" cx="394.46" cy="381.13" r="173.91"/><circle class="cls-31" cx="388.65" cy="386.88" r="173.91"/><circle class="cls-32" cx="382.85" cy="392.64" r="173.91"/><circle class="cls-33" cx="377.04" cy="398.4" r="173.91"/><circle class="cls-34" cx="371.24" cy="404.15" r="173.91"/><circle class="cls-35" cx="365.44" cy="409.91" r="173.91"/><circle class="cls-36" cx="359.63" cy="415.66" r="173.91"/><circle class="cls-37" cx="353.83" cy="421.42" r="173.91"/><circle class="cls-38" cx="348.03" cy="427.18" r="173.91"/><circle class="cls-38" cx="342.22" cy="432.93" r="173.91"/><circle class="cls-39" cx="336.42" cy="438.69" r="173.91"/><circle class="cls-40" cx="330.61" cy="444.44" r="173.91"/><circle class="cls-41" cx="324.81" cy="450.2" r="173.91"/><circle class="cls-42" cx="319.01" cy="455.96" r="173.91"/><circle class="cls-43" cx="313.2" cy="461.71" r="173.91"/><circle class="cls-44" cx="307.4" cy="467.47" r="173.91"/><circle class="cls-45" cx="301.6" cy="473.22" r="173.91"/><circle class="cls-46" cx="295.79" cy="478.98" r="173.91"/><circle class="cls-47" cx="289.99" cy="484.74" r="173.91"/><circle class="cls-48" cx="284.18" cy="490.49" r="173.91"/><circle class="cls-49" cx="278.38" cy="496.25" r="173.91"/><circle class="cls-50" cx="272.58" cy="502" r="173.91"/><circle class="cls-51" cx="266.77" cy="507.76" r="173.91"/><circle class="cls-52" cx="260.97" cy="513.52" r="173.91"/><circle class="cls-53" cx="255.17" cy="519.27" r="173.91"/><circle class="cls-54" cx="249.36" cy="525.03" r="173.91"/><circle class="cls-55" cx="243.56" cy="530.78" r="173.91"/><circle class="cls-56" cx="237.75" cy="536.54" r="173.91"/><circle class="cls-57" cx="231.95" cy="542.3" r="173.91"/><circle class="cls-58" cx="226.15" cy="548.05" r="173.91"/><circle class="cls-59" cx="220.34" cy="553.81" r="173.91"/><circle class="cls-60" cx="214.54" cy="559.56" r="173.91"/><circle class="cls-61" cx="208.74" cy="565.32" r="173.91"/><circle class="cls-62" cx="202.93" cy="571.08" r="173.91"/><circle class="cls-63" cx="197.13" cy="576.83" r="173.91"/><circle class="cls-64" cx="191.32" cy="582.59" r="173.91"/><circle class="cls-65" cx="185.52" cy="588.34" r="173.91"/><circle class="cls-66" cx="179.72" cy="594.1" r="173.91"/><circle class="cls-67" cx="173.91" cy="599.86" r="173.91"/><path class="cls-68" d="M191.81,443.7A173.92,173.92,0,1,1,17.89,617.61,173.37,173.37,0,0,1,191.81,443.7Z"/><path class="cls-69" d="M209.7,461.46A173.92,173.92,0,1,1,35.79,635.37,173.38,173.38,0,0,1,209.7,461.46Z"/><path class="cls-70" d="M227.6,479.22A173.92,173.92,0,1,1,53.68,653.13,173.37,173.37,0,0,1,227.6,479.22Z"/><path class="cls-71" d="M245.49,497A173.92,173.92,0,1,1,71.58,670.89,173.38,173.38,0,0,1,245.49,497Z"/><path class="cls-72" d="M263.39,514.74A173.92,173.92,0,1,1,89.47,688.65,173.37,173.37,0,0,1,263.39,514.74Z"/><path class="cls-73" d="M281.28,532.5A173.92,173.92,0,1,1,107.37,706.41,173.38,173.38,0,0,1,281.28,532.5Z"/><path class="cls-74" d="M299.18,550.26A173.92,173.92,0,1,1,125.26,724.17,173.37,173.37,0,0,1,299.18,550.26Z"/><path class="cls-75" d="M317.07,568A173.92,173.92,0,1,1,143.16,741.93,173.38,173.38,0,0,1,317.07,568Z"/><path class="cls-76" d="M335,585.78A173.92,173.92,0,1,1,161.05,759.69,173.33,173.33,0,0,1,335,585.78Z"/><path class="cls-77" d="M352.86,603.54A173.91,173.91,0,1,1,179,777.45,173.34,173.34,0,0,1,352.86,603.54Z"/><path class="cls-78" d="M370.76,621.3A173.91,173.91,0,1,1,196.84,795.21,173.33,173.33,0,0,1,370.76,621.3Z"/><path class="cls-79" d="M388.65,639.06A173.91,173.91,0,1,1,214.74,813,173.34,173.34,0,0,1,388.65,639.06Z"/><path class="cls-80" d="M406.55,656.82A173.91,173.91,0,1,1,232.63,830.73,173.33,173.33,0,0,1,406.55,656.82Z"/><path class="cls-81" d="M424.44,674.58A173.91,173.91,0,1,1,250.53,848.49,173.34,173.34,0,0,1,424.44,674.58Z"/><path class="cls-82" d="M442.34,692.34A173.91,173.91,0,1,1,268.42,866.25,173.36,173.36,0,0,1,442.34,692.34Z"/><path class="cls-83" d="M460.23,710.1A173.91,173.91,0,1,1,286.32,884,173.39,173.39,0,0,1,460.23,710.1Z"/><path class="cls-84" d="M478.13,727.86A173.91,173.91,0,1,1,304.21,901.77,173.36,173.36,0,0,1,478.13,727.86Z"/><path class="cls-85" d="M496,745.62A173.91,173.91,0,1,1,322.11,919.53,173.39,173.39,0,0,1,496,745.62Z"/><path class="cls-86" d="M513.92,763.38A173.91,173.91,0,1,1,340,937.29,173.36,173.36,0,0,1,513.92,763.38Z"/><path class="cls-87" d="M531.81,781.14A173.91,173.91,0,1,1,357.9,955.05,173.39,173.39,0,0,1,531.81,781.14Z"/><path class="cls-88" d="M549.71,798.89A173.92,173.92,0,1,1,375.79,972.81,173.37,173.37,0,0,1,549.71,798.89Z"/><path class="cls-89" d="M567.6,816.65A173.92,173.92,0,1,1,393.69,990.57,173.4,173.4,0,0,1,567.6,816.65Z"/><path class="cls-90" d="M585.5,834.41a173.92,173.92,0,1,1-173.92,173.92A173.37,173.37,0,0,1,585.5,834.41Z"/><path class="cls-90" d="M777.3,1026.09a173.9,173.9,0,1,1-50.93-123A173.36,173.36,0,0,1,777.3,1026.09Z"/><path class="cls-91" d="M610.44,845.11a173.8,173.8,0,1,1-117.37,45.51A173.46,173.46,0,0,1,610.44,845.11Z"/><path class="cls-92" d="M617.48,838.05A173.68,173.68,0,1,1,500.1,883.51,173.57,173.57,0,0,1,617.48,838.05Z"/><path class="cls-93" d="M624.53,831a173.58,173.58,0,1,1-117.41,45.42A173.61,173.61,0,0,1,624.53,831Z"/><path class="cls-94" d="M631.57,823.92A173.47,173.47,0,1,1,514.15,869.3,173.73,173.73,0,0,1,631.57,823.92Z"/><path class="cls-95" d="M638.62,816.86a173.35,173.35,0,1,1-117.45,45.33A173.74,173.74,0,0,1,638.62,816.86Z"/><path class="cls-96" d="M645.66,809.8a173.67,173.67,0,1,1,0,347.33c-95,0-173.72-75.79-173.91-173.67A173.23,173.23,0,0,1,645.66,809.8Z"/><path class="cls-97" d="M652.71,802.73a173.63,173.63,0,1,1,0,347.25c-94.87,0-173.9-75.44-173.91-173.62A173.16,173.16,0,0,1,652.71,802.73Z"/><path class="cls-98" d="M659.75,795.67A173,173,0,0,1,833.66,969.26,172.27,172.27,0,0,1,782.12,1093a174.07,174.07,0,0,1-122.37,49.86c-94.71,0-173.91-75.1-173.91-173.58a172.41,172.41,0,0,1,56.41-128.39A174.16,174.16,0,0,1,659.75,795.67Z"/><path class="cls-99" d="M666.8,788.61A172.9,172.9,0,0,1,840.71,962.15,172.17,172.17,0,0,1,789.09,1086a174.13,174.13,0,0,1-122.3,49.72c-94.54,0-173.9-74.75-173.91-173.54a172.3,172.3,0,0,1,56.4-128.39A174.23,174.23,0,0,1,666.8,788.61Z"/><path class="cls-100" d="M673.84,781.55A174.18,174.18,0,0,1,797,832c31.11,31,50.74,74.05,50.73,123,0,49.54-20,92.92-51.69,123.91a174.24,174.24,0,0,1-122.22,49.59c-94.37,0-173.91-74.41-173.91-173.5,0-51.88,22-97.14,56.38-128.4A174.33,174.33,0,0,1,673.84,781.55Z"/><path class="cls-101" d="M680.89,774.48a174.24,174.24,0,0,1,123.19,50.43c31.08,30.92,50.72,74,50.72,123,0,49.7-20.11,93.07-51.77,124a174.33,174.33,0,0,1-122.15,49.45c-94.2,0-173.9-74.06-173.91-173.46,0-52,22-97.19,56.36-128.4A174.48,174.48,0,0,1,680.89,774.48Z"/><path class="cls-102" d="M687.93,767.42A174.35,174.35,0,0,1,811.15,817.8c31,30.87,50.7,73.87,50.69,123,0,49.85-20.16,93.21-51.84,124.1a174.42,174.42,0,0,1-122.07,49.32c-94,0-173.91-73.72-173.91-173.42,0-52.09,22-97.25,56.34-128.4A174.54,174.54,0,0,1,687.93,767.42Z"/><path class="cls-103" d="M695,760.36a174.4,174.4,0,0,1,123.23,50.33c31,30.82,50.68,73.79,50.68,123,0,50-20.22,93.34-51.92,124.19a174.52,174.52,0,0,1-122,49.18c-93.87,0-173.9-73.37-173.91-173.37,0-52.2,22.06-97.31,56.33-128.41A174.61,174.61,0,0,1,695,760.36Z"/><path class="cls-104" d="M702,753.3a174.5,174.5,0,0,1,123.26,50.28c31,30.77,50.66,73.7,50.65,123,0,50.16-20.28,93.49-52,124.29A174.63,174.63,0,0,1,702,1100c-93.7,0-173.91-73-173.91-173.34,0-52.3,22.07-97.36,56.3-128.41A174.77,174.77,0,0,1,702,753.3Z"/><path class="cls-105" d="M709.07,746.23c47.41,0,91.41,18.62,123.27,50.24C863.28,827.19,883,870.08,883,919.53c0,50.31-20.34,93.63-52.07,124.38a174.72,174.72,0,0,1-121.85,48.91c-93.53,0-173.9-72.68-173.91-173.29,0-52.41,22.09-97.42,56.29-128.42A174.88,174.88,0,0,1,709.07,746.23Z"/><path class="cls-106" d="M716.11,739.17c47.37,0,91.4,18.56,123.3,50.19C870.31,820,890,862.88,890,912.43c0,50.45-20.39,93.77-52.14,124.47a174.79,174.79,0,0,1-121.77,48.78c-93.37,0-173.9-72.34-173.91-173.26,0-52.51,22.11-97.48,56.26-128.41A175,175,0,0,1,716.11,739.17Z"/><path class="cls-107" d="M723.16,732.11c47.33,0,91.39,18.5,123.31,50.14,30.87,30.63,50.6,73.43,50.6,123.07,0,50.61-20.46,93.92-52.22,124.57a174.89,174.89,0,0,1-121.7,48.64c-93.2,0-173.9-72-173.91-173.21,0-52.62,22.13-97.54,56.25-128.42A175.09,175.09,0,0,1,723.16,732.11Z"/><path class="cls-108" d="M730.2,725.05c47.29,0,91.39,18.44,123.34,50.09,30.83,30.58,50.58,73.34,50.57,123.08,0,50.76-20.51,94-52.29,124.66a175,175,0,0,1-121.62,48.51c-93,0-173.9-71.65-173.91-173.17,0-52.73,22.15-97.6,56.23-128.43C643.92,741.41,685.65,725,730.2,725.05Z"/><path class="cls-109" d="M737.25,718c47.24,0,91.38,18.39,123.35,50,30.8,30.53,50.57,73.25,50.56,123.08,0,50.92-20.57,94.2-52.37,124.76s-75.12,48.37-121.55,48.37c-92.86,0-173.9-71.3-173.91-173.13,0-52.83,22.17-97.65,56.21-128.43C651,734.3,692.73,718,737.25,718Z"/><path class="cls-110" d="M744.29,710.92c47.21,0,91.38,18.33,123.38,50C898.43,791.4,918.21,834.08,918.2,884c0,51.07-20.63,94.34-52.44,124.85s-75.13,48.24-121.47,48.24c-92.7,0-173.9-71-173.91-173.09,0-52.94,22.19-97.71,56.19-128.43C658,727.19,699.81,710.92,744.29,710.92Z"/><path class="cls-111" d="M751.34,703.86c47.16,0,91.37,18.27,123.39,50,30.73,30.42,50.53,73.06,50.52,123.09,0,51.22-20.69,94.48-52.52,124.94s-75.14,48.1-121.4,48.1c-92.53,0-173.9-70.61-173.91-173.05,0-53,22.21-97.76,56.18-128.43C665.07,720.08,706.9,703.86,751.34,703.86Z"/><path class="cls-112" d="M758.38,696.79c47.13,0,91.37,18.22,123.42,49.92,30.69,30.37,50.5,73,50.49,123.09,0,51.37-20.74,94.63-52.59,125s-75.15,48-121.32,48c-92.36,0-173.9-70.27-173.91-173,0-53.15,22.22-97.82,56.15-128.44C672.13,713,714,696.79,758.38,696.79Z"/><path class="cls-113" d="M765.43,689.73c47.08,0,91.36,18.16,123.43,49.87,30.66,30.32,50.49,72.89,50.48,123.1,0,51.52-20.81,94.76-52.67,125.12s-75.15,47.84-121.25,47.84c-92.19,0-173.9-69.92-173.91-173,0-53.26,22.25-97.89,56.14-128.45C679.18,705.85,721.06,689.73,765.43,689.73Z"/><path class="cls-114" d="M772.47,682.67c47,0,91.35,18.1,123.46,49.82,30.61,30.27,50.46,72.8,50.45,123.1,0,51.68-20.86,94.91-52.74,125.22s-75.16,47.71-121.18,47.71c-92,0-173.89-69.58-173.9-172.93,0-53.36,22.26-97.94,56.12-128.45C686.23,698.74,728.14,682.67,772.47,682.67Z"/><path class="cls-115" d="M779.52,675.61c47,0,91.34,18,123.48,49.77,30.57,30.22,50.44,72.71,50.43,123.11,0,51.83-20.92,95-52.82,125.31s-75.17,47.57-121.1,47.57c-91.86,0-173.9-69.23-173.91-172.88,0-53.46,22.29-98,56.1-128.45C693.28,691.63,735.23,675.6,779.52,675.61Z"/><path class="cls-116" d="M786.56,668.54c47,0,91.34,18,123.5,49.73,30.54,30.17,50.42,72.62,50.41,123.12,0,52-21,95.19-52.89,125.4s-75.18,47.44-121,47.44c-91.68,0-173.89-68.89-173.9-172.85,0-53.56,22.3-98,56.08-128.45C700.33,684.51,742.31,668.54,786.56,668.54Z"/><path class="cls-117" d="M793.61,661.48c46.92,0,91.33,17.93,123.52,49.68,30.5,30.12,50.4,72.53,50.39,123.12,0,52.14-21,95.34-53,125.5s-75.19,47.3-120.95,47.3c-91.52,0-173.9-68.54-173.91-172.8,0-53.67,22.33-98.11,56.06-128.46C707.39,677.4,749.39,661.48,793.61,661.48Z"/><path class="cls-118" d="M800.66,654.42c46.87,0,91.32,17.87,123.53,49.63,30.47,30.07,50.38,72.44,50.37,123.13,0,52.28-21.09,95.47-53,125.59s-75.2,47.17-120.88,47.17c-91.35,0-173.89-68.2-173.9-172.76,0-53.78,22.34-98.17,56-128.47C714.44,670.29,756.47,654.42,800.66,654.42Z"/><path class="cls-119" d="M807.7,647.36c46.83,0,91.32,17.81,123.56,49.58,30.43,30,50.36,72.35,50.35,123.13,0,52.44-21.16,95.62-53.12,125.69s-75.21,47-120.8,47c-91.19,0-173.9-67.85-173.91-172.72,0-53.88,22.36-98.23,56-128.46C721.49,663.18,763.55,647.35,807.7,647.36Z"/><path class="cls-120" d="M814.75,640.29c46.79,0,91.31,17.76,123.57,49.54,30.4,30,50.34,72.26,50.33,123.14,0,52.59-21.21,95.76-53.19,125.78s-75.22,46.9-120.73,46.9c-91,0-173.9-67.51-173.9-172.68,0-54,22.38-98.29,56-128.47C728.54,656.06,770.64,640.29,814.75,640.29Z"/><path class="cls-121" d="M821.79,633.23c46.75,0,91.31,17.7,123.6,49.49,30.36,29.92,50.32,72.17,50.31,123.15,0,52.74-21.27,95.9-53.27,125.87S867.2,978.5,821.78,978.5c-90.85,0-173.9-67.16-173.91-172.64,0-54.09,22.4-98.34,56-128.47C735.6,649,777.72,633.23,821.79,633.23Z"/><path class="cls-122" d="M828.84,626.17c46.71,0,91.29,17.64,123.61,49.44,30.33,29.88,50.3,72.08,50.29,123.15,0,52.9-21.33,96-53.34,126s-75.24,46.63-120.58,46.63c-90.68,0-173.9-66.82-173.9-172.6,0-54.2,22.42-98.4,56-128.48C742.65,641.84,784.8,626.17,828.84,626.17Z"/><path class="cls-122" d="M835.88,619.1c46.67,0,91.29,17.59,123.64,49.4,30.29,29.83,50.28,72,50.27,123.16,0,53.05-21.39,96.18-53.42,126.06s-75.25,46.49-120.5,46.49c-90.52,0-173.9-66.47-173.91-172.55,0-54.31,22.44-98.46,55.95-128.49C749.7,634.73,791.88,619.1,835.88,619.1Z"/><path class="cls-123" d="M842.93,612c46.62,0,91.28,17.53,123.65,49.35,30.26,29.78,50.26,71.91,50.25,123.17,0,53.2-21.44,96.32-53.49,126.15s-75.26,46.36-120.43,46.36c-90.34,0-173.9-66.13-173.9-172.52,0-54.41,22.45-98.51,55.93-128.48C756.75,627.61,799,612,842.93,612Z"/><path class="cls-124" d="M850,605c46.59,0,91.28,17.47,123.68,49.31,30.22,29.72,50.24,71.81,50.23,123.16,0,53.35-21.51,96.47-53.57,126.25S895.05,949.92,850,949.92c-90.18,0-173.9-65.78-173.91-172.47,0-54.52,22.48-98.57,55.92-128.49C763.81,620.5,806.05,605,850,605Z"/><path class="cls-125" d="M857,597.92c46.54,0,91.27,17.41,123.69,49.26,30.19,29.67,50.22,71.72,50.21,123.17,0,53.5-21.56,96.61-53.64,126.34S902,942.78,857,942.78c-90,0-173.9-65.44-173.9-172.44,0-54.62,22.49-98.63,55.89-128.49C770.86,613.39,813.13,597.91,857,597.92Z"/><path class="cls-126" d="M864.06,590.85c46.51,0,91.27,17.36,123.72,49.22,30.15,29.62,50.2,71.63,50.19,123.17,0,53.66-21.62,96.76-53.72,126.44s-75.28,46-120.2,46c-89.85,0-173.9-65.09-173.91-172.39,0-54.73,22.52-98.69,55.88-128.5C777.91,606.28,820.21,590.85,864.06,590.85Z"/><path class="cls-127" d="M871.11,583.79c46.46,0,91.26,17.3,123.73,49.17C1025,662.53,1045,704.5,1045,756.14c0,53.81-21.68,96.89-53.79,126.53s-75.29,45.82-120.13,45.82c-89.67,0-173.9-64.75-173.9-172.35,0-54.84,22.53-98.75,55.85-128.5C785,599.17,827.3,583.79,871.11,583.79Z"/><path class="cls-128" d="M878.15,576.73c46.42,0,91.26,17.24,123.76,49.12,30.08,29.52,50.15,71.45,50.15,123.19,0,54-21.74,97-53.87,126.62s-75.3,45.68-120.05,45.68c-89.51,0-173.9-64.4-173.91-172.31,0-54.94,22.56-98.8,55.84-128.5C792,592.05,834.38,576.73,878.15,576.73Z"/><path class="cls-129" d="M885.2,569.67c46.38,0,91.24,17.18,123.77,49.07,30,29.47,50.14,71.36,50.13,123.19,0,54.12-21.79,97.18-53.94,126.72s-75.31,45.55-120,45.55c-89.34,0-173.9-64.05-173.9-172.27,0-55,22.57-98.86,55.82-128.51C799.07,584.94,841.46,569.66,885.2,569.67Z"/><path class="cls-130" d="M892.24,562.6c46.34,0,91.24,17.13,123.8,49,30,29.42,50.11,71.27,50.11,123.2,0,54.26-21.86,97.32-54,126.81s-75.31,45.41-119.9,45.41c-89.17,0-173.89-63.7-173.9-172.23,0-55.15,22.59-98.91,55.8-128.51C806.12,577.83,848.54,562.6,892.24,562.6Z"/><path class="cls-131" d="M899.29,555.54c46.3,0,91.23,17.08,123.81,49,30,29.37,50.1,71.18,50.09,123.2,0,54.42-21.91,97.47-54.1,126.91s-75.32,45.28-119.82,45.28c-89,0-173.9-63.36-173.9-172.19,0-55.26,22.61-99,55.78-128.52C813.17,570.72,855.63,555.54,899.29,555.54Z"/><path class="cls-132" d="M906.33,548.48c46.26,0,91.23,17,123.84,48.93,29.93,29.32,50.07,71.09,50.07,123.21,0,54.57-22,97.6-54.18,127s-75.33,45.14-119.75,45.14c-88.83,0-173.9-63-173.9-172.14,0-55.37,22.63-99,55.77-128.52C820.22,563.6,862.71,548.48,906.33,548.48Z"/><path class="cls-133" d="M913.38,541.41c46.22,0,91.22,17,123.85,48.89,29.9,29.27,50.06,71,50,123.22,0,54.72-22,97.74-54.25,127.09s-75.34,45-119.67,45c-88.67,0-173.9-62.67-173.9-172.11,0-55.47,22.65-99.09,55.74-128.52C827.28,556.49,869.79,541.41,913.38,541.41Z"/><path class="cls-133" d="M920.42,534.35c46.18,0,91.22,16.91,123.88,48.84,29.86,29.22,50,70.92,50,123.22,0,54.88-22.09,97.89-54.33,127.19s-75.35,44.87-119.6,44.87c-88.5,0-173.9-62.32-173.9-172.06,0-55.58,22.67-99.15,55.73-128.53C834.33,549.38,876.87,534.35,920.42,534.35Z"/><path class="cls-134" d="M927.47,527.29c46.13,0,91.21,16.85,123.89,48.79,29.83,29.17,50,70.83,50,123.23,0,55-22.14,98-54.4,127.28s-75.35,44.74-119.52,44.74c-88.33,0-173.9-62-173.9-172,0-55.68,22.69-99.2,55.71-128.53C841.38,542.27,884,527.29,927.47,527.29Z"/><path class="cls-135" d="M934.51,520.23c46.1,0,91.21,16.79,123.92,48.74,29.79,29.13,50,70.74,50,123.24,0,55.18-22.21,98.17-54.48,127.37s-75.36,44.6-119.45,44.6c-88.16,0-173.9-61.63-173.9-172,0-55.79,22.71-99.26,55.69-128.53C848.43,535.15,891,520.22,934.51,520.23Z"/><path class="cls-136" d="M941.56,513.16c46.05,0,91.19,16.74,123.93,48.7,29.76,29.08,50,70.65,50,123.24,0,55.33-22.26,98.31-54.55,127.47S985.54,857,941.54,857c-88,0-173.9-61.29-173.91-171.94,0-55.9,22.73-99.32,55.68-128.54C855.49,528,898.12,513.16,941.56,513.16Z"/><path class="cls-136" d="M948.6,506.1c46,0,91.19,16.68,124,48.65,29.72,29,50,70.56,50,123.25,0,55.48-22.32,98.45-54.63,127.56s-75.38,44.33-119.3,44.33c-87.83,0-173.9-60.94-173.9-171.9,0-56,22.75-99.38,55.65-128.54C862.54,520.93,905.2,506.1,948.6,506.1Z"/><path class="cls-137" d="M955.65,499c46,0,91.18,16.62,124,48.61,29.69,29,49.94,70.46,49.93,123.24,0,55.64-22.38,98.6-54.7,127.66s-75.39,44.2-119.22,44.2c-87.66,0-173.91-60.6-173.91-171.86,0-56.1,22.77-99.44,55.64-128.55C869.59,513.82,912.28,499,955.65,499Z"/><path class="cls-138" d="M962.69,492c45.93,0,91.18,16.56,124,48.56,29.65,28.92,49.91,70.37,49.91,123.25,0,55.79-22.44,98.74-54.78,127.75s-75.4,44.06-119.15,44.06c-87.49,0-173.9-60.25-173.9-171.82,0-56.2,22.79-99.49,55.62-128.55C876.64,506.7,919.37,492,962.69,492Z"/><path class="cls-139" d="M969.74,484.91c45.89,0,91.17,16.51,124,48.52,29.62,28.87,49.9,70.28,49.89,123.26,0,55.94-22.49,98.88-54.85,127.83s-75.41,43.94-119.07,43.94c-87.33,0-173.91-59.91-173.91-171.78,0-56.31,22.81-99.55,55.6-128.55C883.7,499.59,926.45,484.91,969.74,484.91Z"/><path class="cls-140" d="M976.78,477.85c45.85,0,91.17,16.45,124,48.47,29.58,28.82,49.87,70.19,49.87,123.26,0,56.1-22.56,99-54.93,127.93s-75.42,43.8-119,43.8c-87.16,0-173.9-59.56-173.9-171.73,0-56.42,22.83-99.61,55.58-128.56C890.75,492.48,933.53,477.85,976.78,477.85Z"/><path class="cls-140" d="M983.83,470.79c45.81,0,91.16,16.39,124.05,48.42,29.55,28.77,49.86,70.1,49.85,123.27,0,56.24-22.61,99.16-55,128s-75.43,43.67-118.92,43.67c-87,0-173.91-59.22-173.91-171.7,0-56.52,22.85-99.66,55.57-128.56C897.8,485.37,940.61,470.79,983.83,470.79Z"/><path class="cls-141" d="M990.87,463.72c45.77,0,91.16,16.34,124.08,48.38,29.51,28.72,49.83,70,49.83,123.27,0,56.4-22.67,99.31-55.08,128.12S1034.26,807,990.85,807C904,807,817,748.15,817,635.37c0-56.63,22.86-99.73,55.54-128.57C904.85,478.25,947.7,463.72,990.87,463.72Z"/><path class="cls-142" d="M997.92,456.66c45.72,0,91.14,16.28,124.1,48.33,29.47,28.67,49.81,69.92,49.8,123.28,0,56.55-22.73,99.45-55.15,128.21s-75.45,43.4-118.77,43.4C911.24,799.87,824,741.35,824,628.26c0-56.73,22.89-99.78,55.53-128.56C911.9,471.14,954.78,456.66,997.92,456.66Z"/><path class="cls-143" d="M1005,449.6c45.69,0,91.14,16.22,124.12,48.28,29.44,28.62,49.79,69.84,49.79,123.29,0,56.7-22.79,99.59-55.23,128.3s-75.46,43.26-118.7,43.26c-86.49,0-173.91-58.18-173.9-171.57,0-56.84,22.9-99.84,55.51-128.57C919,464,961.86,449.6,1005,449.6Z"/><path class="cls-143" d="M1012,442.54c45.64,0,91.13,16.16,124.14,48.23,29.4,28.57,49.76,69.75,49.76,123.29,0,56.86-22.84,99.73-55.3,128.4s-75.46,43.13-118.62,43.13c-86.32,0-173.91-57.84-173.91-171.53,0-56.95,22.93-99.9,55.49-128.58S968.94,442.53,1012,442.54Z"/><path class="cls-2" d="M1019.05,435.47c45.61,0,91.13,16.11,124.16,48.19C1172.57,512.18,1193,553.32,1193,607c0,57-22.91,99.87-55.38,128.49s-75.47,43-118.55,43c-86.15,0-173.91-57.49-173.9-171.49,0-57.05,22.94-100,55.47-128.58S976,435.47,1019.05,435.47Z"/><path class="cls-1" d="M1200,599.86c-1,57.15-23,100-55.45,128.58s-75.48,42.86-118.48,42.86c-86,0-172-57.16-173.9-171.45,1-57.15,23-100,55.45-128.59s75.49-42.85,118.48-42.85C1112.08,428.42,1198.06,485.57,1200,599.86Z"/></svg>